<?xml version="1.0" encoding="UTF-8" standalone="no"?>
<!-- Created with Inkscape (http://www.inkscape.org/) -->

<svg
   width="250"
   height="95"
   viewBox="0 0 250.00002 94.999997"
   id="svg3347"
   version="1.1"
   inkscape:version="1.2.2 (b0a8486541, 2022-12-01)"
   sodipodi:docname="start.svg"
   xmlns:inkscape="http://www.inkscape.org/namespaces/inkscape"
   xmlns:sodipodi="http://sodipodi.sourceforge.net/DTD/sodipodi-0.dtd"
   xmlns="http://www.w3.org/2000/svg"
   xmlns:svg="http://www.w3.org/2000/svg"
   xmlns:rdf="http://www.w3.org/1999/02/22-rdf-syntax-ns#"
   xmlns:cc="http://creativecommons.org/ns#"
   xmlns:dc="http://purl.org/dc/elements/1.1/">
  <defs
     id="defs3349" />
  <sodipodi:namedview
     id="base"
     pagecolor="#ffffff"
     bordercolor="#666666"
     borderopacity="1.0"
     inkscape:pageopacity="0.0"
     inkscape:pageshadow="2"
     inkscape:zoom="3.788"
     inkscape:cx="123.15206"
     inkscape:cy="47.650475"
     inkscape:document-units="px"
     inkscape:current-layer="layer1"
     showgrid="false"
     fit-margin-top="0"
     fit-margin-left="0"
     fit-margin-right="0"
     fit-margin-bottom="0"
     units="px"
     inkscape:window-width="1084"
     inkscape:window-height="637"
     inkscape:window-x="74"
     inkscape:window-y="22"
     inkscape:window-maximized="0"
     inkscape:showpageshadow="2"
     inkscape:pagecheckerboard="0"
     inkscape:deskcolor="#d1d1d1" />
  <metadata
     id="metadata3352">
    <rdf:RDF>
      <cc:Work
         rdf:about="">
        <dc:format>image/svg+xml</dc:format>
        <dc:type
           rdf:resource="http://purl.org/dc/dcmitype/StillImage" />
      </cc:Work>
    </rdf:RDF>
  </metadata>
  <g
     inkscape:label="Livello 1"
     inkscape:groupmode="layer"
     id="layer1"
     transform="translate(178.20166,98.092487)">
    <g
       aria-label="6"
       id="text1559"
       style="font-size:35.2224px;font-family:'Noto Sans';-inkscape-font-specification:'Noto Sans, Normal';fill:#eff0f1;stroke-width:0.600945;stroke-linecap:square;paint-order:stroke markers fill">
      <path
         id="path869"
         d="m -139.30518,-98.092487 c -1.21186,0 -2.1875,0.97563 -2.1875,2.1875 0,1.211861 0.97564,2.1875 2.1875,2.1875 1.21186,0 2.1875,-0.975639 2.1875,-2.1875 0,-1.21187 -0.97564,-2.1875 -2.1875,-2.1875 z m 15.3125,0 -4.375,4.375 6.5625,6.5625 -6.5625,6.5625 4.375,4.375 6.5625,-6.5625 4.375,-4.375 z m 46.847661,4.486328 v 26.599609 h 3.710937 v -26.599609 z m 113.759765,1.447266 c -2.371639,0 -4.309679,0.424195 -5.8125,1.269531 -1.502821,0.845337 -2.676148,1.98364 -3.521484,3.416016 -0.821855,1.408894 -1.39782,2.994741 -1.726563,4.755859 -0.30526,1.737637 -0.457031,3.510278 -0.457031,5.318359 0,2.512529 0.375543,4.590664 1.126953,6.234375 0.774892,1.643711 1.808123,2.863737 3.09961,3.66211 1.291486,0.798374 2.735284,1.197265 4.332031,1.197265 2.442084,0 4.380124,-0.751085 5.8125,-2.253906 1.455858,-1.50282 2.183594,-3.569282 2.183594,-6.199219 0,-2.442084 -0.669363,-4.319797 -2.007813,-5.634765 -1.338449,-1.33845 -3.099416,-2.007813 -5.283203,-2.007813 -1.50282,0 -2.736474,0.29382 -3.699219,0.88086 -0.962744,0.563557 -1.71383,1.256269 -2.253906,2.078125 h -0.210938 c 0.07044,-1.385413 0.245565,-2.689115 0.527344,-3.910157 0.281779,-1.221042 0.72737,-2.300971 1.337891,-3.240234 0.634003,-0.939263 1.492113,-1.678674 2.572265,-2.21875 1.080153,-0.540076 2.430553,-0.810547 4.050782,-0.810547 0.516595,0 1.043908,0.03502 1.583984,0.105469 0.540076,0.07044 1.022644,0.175517 1.445313,0.316406 v -2.640625 c -0.375705,-0.11741 -0.869948,-0.201087 -1.480469,-0.248047 -0.58704,-0.04696 -1.126028,-0.07031 -1.619141,-0.07031 z m -134.769531,0.162109 v 24.990234 h 3.779297 v -9.486328 h 2.695312 c 2.473452,0 4.434294,-0.372495 5.88086,-1.11914 1.446573,-0.769999 2.473346,-1.761287 3.080078,-2.97461 0.62976,-1.213371 0.943359,-2.519924 0.943359,-3.919922 0,-2.356664 -0.746666,-4.189389 -2.240234,-5.496093 -1.493093,-1.329969 -3.872379,-1.994141 -7.138672,-1.994141 z m 3.779297,3.185547 h 2.939453 c 1.98328,0 3.441638,0.372454 4.375,1.119141 0.933362,0.723333 1.400391,1.830887 1.400391,3.324218 0,1.703313 -0.548096,2.917292 -1.644532,3.640625 -1.073412,0.69997 -2.671599,1.050782 -4.794922,1.050782 h -2.27539 z m 34.082031,2.589844 c -1.25999,0 -2.473689,0.163607 -3.640625,0.490234 -1.143438,0.303364 -2.158088,0.687612 -3.044922,1.154297 l 1.191406,2.695312 c 0.816809,-0.396705 1.667854,-0.735665 2.554688,-1.015625 0.886363,-0.280009 1.806812,-0.419921 2.763672,-0.419921 1.143438,0 2.029925,0.291668 2.660156,0.875 0.629759,0.560019 0.945313,1.527612 0.945313,2.904296 v 1.050782 l -3.21875,0.105468 c -2.98666,0.09333 -5.21548,0.64119 -6.685547,1.644532 -1.446569,0.979979 -2.169922,2.438345 -2.169922,4.375 0,1.960008 0.559748,3.406481 1.679687,4.339843 1.11994,0.910001 2.531203,1.365235 4.234375,1.365235 1.586621,0 2.824104,-0.232582 3.710938,-0.699219 0.909863,-0.49003 1.773035,-1.248695 2.589844,-2.275391 h 0.138671 l 0.736329,2.625 h 2.625 v -12.77539 c 0,-2.216706 -0.595192,-3.838588 -1.785157,-4.865235 -1.166936,-1.050008 -2.928254,-1.574218 -5.285156,-1.574218 z m 18.802734,0 c -2.170321,0 -3.919984,0.443391 -5.25,1.330078 -1.306987,0.863341 -1.960937,2.110808 -1.960937,3.74414 0,1.026655 0.222834,1.878023 0.666016,2.554688 0.443182,0.676665 1.073815,1.26001 1.890625,1.75 0.839837,0.489991 1.867084,0.968861 3.080078,1.435547 1.236962,0.466677 2.169068,0.886422 2.798828,1.259765 0.653259,0.349989 1.096972,0.700793 1.330078,1.050782 0.233576,0.326676 0.349609,0.699172 0.349609,1.11914 0,0.746687 -0.31313,1.341784 -0.943359,1.785157 -0.606732,0.443322 -1.611677,0.666015 -3.011719,0.666015 -1.049914,0 -2.133497,-0.151755 -3.253906,-0.455078 -1.096441,-0.326677 -2.052802,-0.689232 -2.869141,-1.085937 v 3.255859 c 0.793311,0.396657 1.656484,0.688373 2.589844,0.875 0.95639,0.186679 2.099672,0.279297 3.429688,0.279297 2.426457,0 4.30475,-0.478872 5.634765,-1.435547 1.353515,-0.956675 2.029297,-2.3677 2.029297,-4.234375 0,-1.026654 -0.220881,-1.878022 -0.664062,-2.554688 -0.443653,-0.676657 -1.085944,-1.248167 -1.925782,-1.714843 -0.816808,-0.489999 -1.796014,-0.957067 -2.939453,-1.400391 -1.189965,-0.466676 -2.124024,-0.862777 -2.800781,-1.189453 -0.653259,-0.326677 -1.120289,-0.653834 -1.400391,-0.980469 -0.256604,-0.326676 -0.384765,-0.712886 -0.384765,-1.15625 0,-1.329969 1.143282,-1.99414 3.429687,-1.99414 0.886833,0 1.763618,0.128069 2.626953,0.384765 0.863337,0.233334 1.702723,0.525011 2.519532,0.875 l 1.224609,-2.833984 c -0.95639,-0.420011 -1.947723,-0.747175 -2.974609,-0.980469 -1.003386,-0.233343 -2.077736,-0.349609 -3.220704,-0.349609 z m 20.138672,0 c -1.119939,0 -2.18216,0.232533 -3.185547,0.699218 -0.979888,0.466677 -1.762469,1.189942 -2.345703,2.169922 h -0.208984 l -0.525391,-2.519531 h -2.939453 v 18.865234 h 3.708985 v -9.521484 c 0,-2.146635 0.32721,-3.790301 0.980468,-4.933594 0.676758,-1.143342 1.902584,-1.714843 3.675782,-1.714843 2.37993,0 3.568359,1.458316 3.568359,4.375 v 11.794921 h 3.675781 v -10.15039 c 0,-1.936654 0.362653,-3.418658 1.085938,-4.445313 0.723284,-1.050001 1.923841,-1.574218 3.603515,-1.574218 2.3569017,0 3.5351566,1.458316 3.5351566,4.375 v 11.794921 h 3.7109375 v -12.285156 c 0,-2.426693 -0.5364326,-4.188529 -1.609375,-5.285156 -1.0734122,-1.096675 -2.6715961,-1.644531 -4.7949219,-1.644531 -1.1899652,0 -2.3230722,0.256228 -3.3964842,0.769531 -1.073412,0.48999 -1.912799,1.248695 -2.519531,2.275391 h -0.279297 c -0.933362,-2.030037 -2.846627,-3.044922 -5.740235,-3.044922 z m 31.3320316,0 c -1.2599907,0 -2.4722058,0.163607 -3.6386719,0.490234 -1.1434377,0.303364 -2.1605108,0.687612 -3.046875,1.154297 L 4.48584,-81.88155 c 0.8168085,-0.396705 1.6683236,-0.735665 2.5546875,-1.015625 0.886834,-0.280009 1.8087651,-0.419921 2.765625,-0.419921 1.1434375,0 2.0299265,0.291668 2.6601565,0.875 0.629761,0.560019 0.943359,1.527612 0.943359,2.904296 v 1.050782 l -3.21875,0.105468 c -2.9866616,0.09333 -5.2159494,0.64119 -6.6855468,1.644532 -1.4470385,0.979979 -2.1699218,2.438345 -2.1699218,4.375 0,1.960008 0.5597482,3.406481 1.6796875,4.339843 1.1199393,0.910001 2.5312025,1.365235 4.234375,1.365235 1.5866201,0 2.8245731,-0.232582 3.7109371,-0.699219 0.910332,-0.49003 1.773505,-1.248695 2.589844,-2.275391 h 0.140625 l 0.734375,2.625 h 2.625 v -12.77539 c 0,-2.216706 -0.595191,-3.838588 -1.785156,-4.865235 -1.166936,-1.050008 -2.928254,-1.574218 -5.2851564,-1.574218 z m -154.7539106,1.253906 c -1.81779,0 -3.28125,1.463447 -3.28125,3.28125 0,1.817845 1.46346,3.28125 3.28125,3.28125 1.8178,0 3.28125,-1.463405 3.28125,-3.28125 0,-1.817803 -1.46345,-3.28125 -3.28125,-3.28125 z m 178.500004,4.996094 c 1.620229,0 2.830533,0.470893 3.628907,1.410156 0.821855,0.939263 1.232421,2.205987 1.232421,3.802734 0,1.995934 -0.459218,3.474756 -1.375,4.4375 -0.915781,0.939263 -2.112457,1.410157 -3.591796,1.410157 -1.197561,0 -2.195767,-0.31717 -2.994141,-0.951172 -0.798374,-0.657484 -1.397688,-1.478618 -1.796875,-2.464844 -0.399186,-1.009708 -0.597656,-2.019589 -0.597656,-3.029297 0,-0.727929 0.221819,-1.44399 0.667968,-2.148437 0.469632,-0.727929 1.115645,-1.315569 1.9375,-1.761719 0.821856,-0.469632 1.785038,-0.705078 2.888672,-0.705078 z m -90.625,3.898437 v 1.646485 c 0,1.633332 -0.488392,2.857162 -1.46875,3.673828 -0.956389,0.816666 -2.1589,1.226562 -3.605468,1.226562 -0.933361,0 -1.692157,-0.222692 -2.275391,-0.666015 -0.583233,-0.443373 -0.875,-1.154786 -0.875,-2.134766 0,-1.096676 0.407801,-1.959844 1.224609,-2.589844 0.839837,-0.629998 2.333644,-0.992607 4.480469,-1.085937 z m 70.273438,0 v 1.646485 c 0,1.633332 -0.488862,2.857162 -1.46875,3.673828 -0.956391,0.816666 -2.15843,1.226562 -3.6054689,1.226562 -0.9333613,0 -1.6921574,-0.222692 -2.2753906,-0.666015 -0.5837031,-0.443373 -0.875,-1.154786 -0.875,-2.134766 0,-1.096676 0.4082709,-1.959844 1.2246094,-2.589844 0.8403069,-0.629998 2.3336437,-0.992607 4.4804691,-1.085937 z m -148.304692,4.230469 c -2.42376,0 -4.375,1.95127 -4.375,4.375 0,2.423731 1.95124,4.375 4.375,4.375 2.42373,0 4.375,-1.951269 4.375,-4.375 0,-2.42373 -1.95127,-4.375 -4.375,-4.375 z m -25.76316,33.699597 c -9.67361,0 -17.50832,7.852709 -17.50832,17.530824 0,9.678137 7.83471,17.5195791 17.50832,17.5195791 7.42385,0 13.76582,-4.627267 16.3156,-11.1508661 -2.50714,3.011671 -6.27442,4.9284376 -10.49824,4.9284376 -7.54851,0 -13.67135,-6.1080586 -13.67135,-13.6601066 0,-7.552047 6.12284,-13.682591 13.67135,-13.682591 0.47636,0 0.94275,0.01991 1.40652,0.06751 -2.20266,-0.999076 -4.64796,-1.552784 -7.22388,-1.552784 z m 5.99739,3.735706 c -6.2989,0 -11.39841,5.11077 -11.39841,11.409659 0,6.298909 5.09951,11.398427 11.39841,11.398427 6.2989,0 11.40967,-5.099518 11.40967,-11.398427 0,-6.298889 -5.11077,-11.409659 -11.40967,-11.409659 z m 75.794397,0.472585 c -0.981983,1.7e-5 -1.601226,0.519552 -1.856603,1.541552 l -5.513548,20.163831 h 3.67945 l 4.095776,-15.066626 6.0424,13.941402 c 0.392653,0.943452 1.028592,1.417772 1.912861,1.417772 0.451404,0 0.831902,-0.125411 1.136466,-0.371324 0.304525,-0.245914 0.571814,-0.594823 0.787651,-1.046448 l 6.064901,-13.941402 4.095777,15.066626 h 3.713207 l -5.479791,-20.163831 c -0.294382,-1.022 -0.896327,-1.541535 -1.800343,-1.541552 -0.844717,1.7e-5 -1.447261,0.426423 -1.800342,1.271488 l -6.593752,15.156635 -6.605004,-15.156635 c -0.176859,-0.412613 -0.432597,-0.728925 -0.776398,-0.945169 -0.343822,-0.216208 -0.709446,-0.326302 -1.102708,-0.326319 z m -75.794397,2.059141 c 4.90049,0 8.87794,3.97745 8.87794,8.877933 0,4.900485 -3.97745,8.866684 -8.87794,8.866684 -4.90048,0 -8.86668,-3.966199 -8.86668,-8.866686 0,-4.900481 3.9662,-8.877931 8.86668,-8.877931 z m 112.15005,3.173113 c -0.312604,0 -0.575598,0.08368 -0.798902,0.247544 -0.223326,0.163878 -0.42155,0.392407 -0.585111,0.675123 l -9.32802,15.550462 h 3.229362 l 7.37015,-12.467376 3.623187,6.076162 h -4.984695 l -1.339004,2.295433 h 7.685208 l 2.430461,4.095781 h 3.42065 l -9.361778,-15.550462 c -0.163578,-0.282716 -0.346799,-0.511245 -0.562606,-0.675123 -0.215828,-0.163861 -0.485862,-0.247544 -0.798902,-0.247544 z m 103.632205,0 c -0.312597,0 -0.586849,0.08368 -0.810155,0.247544 -0.223324,0.163878 -0.410317,0.392407 -0.57388,0.675123 l -9.339268,15.550462 h 3.24062 l 7.370171,-12.467376 3.611927,6.076162 h -4.97346 l -1.339013,2.295433 h 7.673989 l 2.441716,4.095781 h 3.409388 l -9.350519,-15.550462 c -0.163581,-0.282716 -0.358058,-0.511245 -0.573863,-0.675123 -0.21584,-0.163861 -0.474618,-0.247544 -0.787653,-0.247544 z m -164.776315,0.0225 c -0.44663,1.7e-5 -0.79713,0.156114 -1.0577,0.461333 -0.26058,0.305254 -0.39383,0.71636 -0.39383,1.237735 v 14.751558 h 2.71177 v -11.893513 l 11.409665,11.488435 c 0.402088,0.402291 0.832356,0.596348 1.293996,0.596348 0.417081,0 0.752331,-0.14085 1.012692,-0.438831 0.26033,-0.297964 0.393807,-0.713048 0.393825,-1.248987 v -14.886571 h -2.700513 v 11.893512 l -11.454675,-11.375905 c -0.2081,-0.208638 -0.41407,-0.360757 -0.60762,-0.4501 -0.19356,-0.08931 -0.39907,-0.134997 -0.60761,-0.135014 z m 74.972987,0 c -0.446634,1.7e-5 -0.797131,0.156114 -1.057701,0.461333 -0.260575,0.305254 -0.393826,0.71636 -0.393826,1.237735 v 14.751558 h 2.711766 v -11.893513 l 11.409666,11.488435 c 0.402089,0.402291 0.832356,0.596348 1.293996,0.596348 0.417082,0 0.75233,-0.14085 1.012692,-0.438831 0.260326,-0.297964 0.393807,-0.713048 0.393824,-1.248987 v -14.886571 h -2.700512 v 11.893512 l -11.454675,-11.375905 c -0.208101,-0.208638 -0.414064,-0.360757 -0.607616,-0.4501 -0.193557,-0.08931 -0.39907,-0.134997 -0.607614,-0.135014 z m -112.690147,0.202538 v 16.248088 h 2.81303 v -13.412562 h 8.59663 c 0.99729,1.7e-5 1.78203,0.281507 2.34045,0.832675 0.55838,0.551167 0.83264,1.289697 0.83266,2.227907 -2e-5,0.923701 -0.27428,1.673254 -0.83266,2.239176 -0.55842,0.565943 -1.34316,0.843928 -2.34045,0.84391 h -6.51498 v 2.756785 h 6.51498 c 0.93778,0 1.78351,-0.148369 2.52048,-0.438831 0.73695,-0.290481 1.35044,-0.693841 1.8566,-1.215233 0.50614,-0.521392 0.90214,-1.145552 1.17023,-1.867855 0.26805,-0.722302 0.3938,-1.528827 0.39382,-2.407962 -2e-5,-0.89366 -0.12577,-1.693143 -0.39382,-2.407961 -0.26809,-0.7148 -0.66409,-1.323713 -1.17023,-1.822849 -0.50616,-0.4991 -1.11965,-0.88348 -1.8566,-1.158959 -0.73697,-0.275461 -1.5827,-0.416311 -2.52048,-0.416329 z m 19.36492,0 v 16.248088 h 14.52651 v -2.846794 h -11.71347 v -10.565768 h 11.69097 v -2.835526 z m 111.441166,0 v 16.248088 h 9.4067785 c 1.14632348,0 2.2053189,-0.216805 3.1731132,-0.641388 0.9677417,-0.424565 1.7982611,-1.00677 2.4979899,-1.744073 0.6996587,-0.737303 1.24818,-1.608971 1.6428125,-2.621753 0.3945624,-1.012764 0.5850614,-2.108737 0.5850964,-3.285627 -1.75e-5,-1.17685 -0.1905165,-2.253844 -0.5850964,-3.229348 -0.3946325,-0.975488 -0.9431538,-1.809179 -1.6428125,-2.509241 -0.6997288,-0.700009 -1.5302482,-1.244254 -2.4979899,-1.631544 -0.9677943,-0.387289 -2.02678972,-0.585096 -3.1731132,-0.585114 z m 19.623744,0 v 16.248088 h 2.824274 v -13.412562 h 8.844181 c 0.982761,1.7e-5 1.740761,0.262527 2.284165,0.776401 0.543404,0.513909 0.810155,1.293939 0.810173,2.351705 -1.8e-5,1.057331 -0.255272,1.871797 -0.776402,2.430448 -0.521147,0.558669 -1.290661,0.832675 -2.317936,0.832658 h -6.773806 v 2.509241 h 6.076163 l 4.107031,4.512109 h 4.017022 l -4.883433,-4.939689 c 1.056823,-0.401836 1.876021,-1.064201 2.464237,-1.980383 0.588128,-0.916183 0.877644,-2.053866 0.877662,-3.409406 -1.8e-5,-0.908662 -0.125778,-1.723146 -0.393826,-2.452948 -0.268083,-0.729802 -0.652832,-1.353962 -1.158977,-1.867871 -0.506181,-0.513857 -1.127169,-0.905983 -1.85662,-1.181462 -0.729452,-0.275461 -1.552207,-0.416311 -2.475453,-0.416329 z m 20.748929,0 v 16.248088 h 2.835543 v -16.248088 z m 4.725899,0 9.339268,15.550444 c 0.163563,0.283208 0.350522,0.511263 0.573863,0.675124 0.223306,0.163878 0.497558,0.23631 0.810155,0.23631 0.298051,0 0.553078,-0.07243 0.776402,-0.23631 0.223288,-0.163861 0.421533,-0.391916 0.585113,-0.675124 l 9.35052,-15.550444 h -3.251872 l -7.347634,12.512363 -7.370154,-12.512363 z m -42.2855373,2.835526 h 6.5937438 c 0.72922365,1.7e-5 1.39619783,0.133156 2.01413649,0.393826 0.61790361,0.260705 1.15491091,0.618377 1.60905901,1.080219 0.4541306,0.461841 0.8046171,1.017338 1.0576986,1.665313 0.2530639,0.647994 0.3825751,1.355819 0.3825751,2.115395 0,0.759597 -0.1295112,1.460149 -0.3825751,2.115399 -0.2530815,0.655267 -0.603568,1.218492 -1.0576986,1.687817 -0.4541481,0.46936 -0.9911554,0.846012 -1.60905901,1.113972 -0.61793866,0.267961 -1.28491284,0.393827 -2.01413649,0.393827 h -6.5937438 z m -109.3595207,3.960764 v 2.385443 h 9.00171 v -2.385443 z" />
    </g>
  </g>
</svg>
