<?xml version="1.0" encoding="UTF-8" standalone="no"?>
<!-- Created with Inkscape (http://www.inkscape.org/) -->

<svg
   xmlns:dc="http://purl.org/dc/elements/1.1/"
   xmlns:cc="http://creativecommons.org/ns#"
   xmlns:rdf="http://www.w3.org/1999/02/22-rdf-syntax-ns#"
   xmlns:svg="http://www.w3.org/2000/svg"
   xmlns="http://www.w3.org/2000/svg"
   xmlns:sodipodi="http://sodipodi.sourceforge.net/DTD/sodipodi-0.dtd"
   xmlns:inkscape="http://www.inkscape.org/namespaces/inkscape"
   width="250"
   height="95"
   viewBox="0 0 250.00002 94.999997"
   id="svg3347"
   version="1.1"
   inkscape:version="0.92.4 5da689c313, 2019-01-14"
   sodipodi:docname="start2.svg">
  <defs
     id="defs3349" />
  <sodipodi:namedview
     id="base"
     pagecolor="#ffffff"
     bordercolor="#666666"
     borderopacity="1.0"
     inkscape:pageopacity="0.0"
     inkscape:pageshadow="2"
     inkscape:zoom="2.8"
     inkscape:cx="114.11432"
     inkscape:cy="48.972611"
     inkscape:document-units="px"
     inkscape:current-layer="layer1"
     showgrid="false"
     fit-margin-top="0"
     fit-margin-left="0"
     fit-margin-right="0"
     fit-margin-bottom="0"
     units="px"
     inkscape:window-width="1084"
     inkscape:window-height="637"
     inkscape:window-x="74"
     inkscape:window-y="22"
     inkscape:window-maximized="0" />
  <metadata
     id="metadata3352">
    <rdf:RDF>
      <cc:Work
         rdf:about="">
        <dc:format>image/svg+xml</dc:format>
        <dc:type
           rdf:resource="http://purl.org/dc/dcmitype/StillImage" />
        <dc:title></dc:title>
      </cc:Work>
    </rdf:RDF>
  </metadata>
  <g
     inkscape:label="Livello 1"
     inkscape:groupmode="layer"
     id="layer1"
     transform="translate(178.20166,98.092487)">
    <g
       id="g24">
      <g
         style="stroke-width:1.58333325"
         transform="matrix(0.46875,0,0,0.46875,-219.3624,-133.0837)"
         id="g4570">
        <path
           class="ColorScheme-Text"
           id="path3392"
           d="m 333.14292,74.64792 c -4.432,0 -8,3.568 -8,8 0,4.432 3.568,8 8,8 4.432,0 8,-3.568 8,-8 0,-4.432 -3.568,-8 -8,-8 z m 56,0 -16,16 24,24 -24,24 16,16 24,-24 16,-16 z m -76,48 c -6.648,0 -12,5.352 -12,12 0,6.648 5.352,12 12,12 6.648,0 12,-5.352 12,-12 0,-6.648 -5.352,-12 -12,-12 z m 36,48 c -8.864,0 -16,7.136 -16,16 0,8.864 7.136,16 16,16 8.864,0 16,-7.136 16,-16 0,-8.864 -7.136,-16 -16,-16 z"
           style="color:#4d4d4d;opacity:1;fill:#eff0f1;fill-opacity:1;stroke:none;stroke-width:12.66666603"
           inkscape:connector-curvature="0" />
      </g>
      <g
         transform="matrix(0.17525203,0,0,0.17525203,-59.332952,-55.065462)"
         id="g18"
         inkscape:label="Livello 1"
         style="fill:#eff0f1;fill-opacity:1;stroke:none;stroke-width:7.60808992">
        <path
           inkscape:connector-curvature="0"
           style="font-style:normal;font-variant:normal;font-weight:normal;font-stretch:normal;font-size:62.03731155px;line-height:125%;font-family:'Good Times Rg';-inkscape-font-specification:'Good Times Rg';letter-spacing:0px;word-spacing:0px;fill:#eff0f1;fill-opacity:1;stroke:none;stroke-width:7.60808992"
           d="m -578.36924,96.561344 c -55.19829,0 -99.90369,44.808096 -99.90369,100.032076 0,55.22411 44.7054,99.96791 99.90369,99.96791 42.36094,0 78.54867,-26.4035 93.09791,-63.6276 -14.3059,17.1848 -35.80226,28.122 -59.90368,28.122 -43.07232,0 -78.00964,-34.853 -78.00964,-77.9455 0,-43.09249 34.93732,-78.07379 78.00964,-78.07379 2.71816,0 5.37939,0.1136 8.02568,0.3852 -12.56853,-5.700796 -26.52157,-8.860296 -41.21991,-8.860296 z m 34.22151,21.316196 c -35.94195,0 -65.04013,29.1624 -65.04013,65.10429 0,35.942 29.09818,65.0402 65.04013,65.0402 35.94194,0 65.10433,-29.0982 65.10433,-65.0402 0,-35.94189 -29.16239,-65.10429 -65.10433,-65.10429 z m 432.48796,2.6966 c -5.60326,1e-4 -9.1367,2.9646 -10.5939,8.7962 l -31.46068,115.05619 h 20.99519 l 23.37078,-85.97119 34.47834,79.55059 c 2.24051,5.3834 5.86922,8.0899 10.91492,8.0899 2.57574,0 4.74689,-0.7156 6.48475,-2.1188 1.73764,-1.4032 3.26281,-3.3941 4.49439,-5.9711 l 34.60674,-79.55059 23.37078,85.97119 H 26.18935 L -5.07871,129.37034 c -1.67976,-5.8316 -5.1145,-8.7961 -10.27288,-8.7962 -4.82001,1e-4 -8.25817,2.4332 -10.27287,7.2552 l -37.6244,86.48479 -37.6886,-86.48479 c -1.00917,-2.3544 -2.46843,-4.1593 -4.43018,-5.3932 -1.96187,-1.2337 -4.04815,-1.8619 -6.29213,-1.862 z m -432.48796,11.7496 c 27.96249,0 50.6581,22.6956 50.6581,50.65809 0,27.9625 -22.69561,50.5939 -50.6581,50.5939 -27.96251,0 -50.59391,-22.6314 -50.59391,-50.59391 0,-27.96248 22.6314,-50.65808 50.59391,-50.65808 z m 639.93579,18.106 c -1.78374,0 -3.2844,0.4775 -4.55859,1.4125 -1.27431,0.9351 -2.40539,2.2391 -3.33868,3.8523 l -53.22632,88.73199 h 18.42696 l 42.05458,-71.13969 20.67415,34.67099 H 87.37715 l -7.64045,13.0979 h 43.85232 l 13.86838,23.3708 h 19.51846 l -53.41894,-88.73199 c -0.93339,-1.6132 -1.97886,-2.9172 -3.21027,-3.8523 -1.23153,-0.935 -2.77236,-1.4125 -4.55859,-1.4125 z m 591.33241,0 c -1.7837,0 -3.3486,0.4775 -4.6228,1.4125 -1.2743,0.9351 -2.3413,2.2391 -3.2746,3.8523 l -53.2905,88.73199 h 18.4912 l 42.0547,-71.13969 20.6099,34.67099 h -28.3789 l -7.6405,13.0979 h 43.7883 l 13.9326,23.3708 h 19.4542 l -53.3547,-88.73199 c -0.9334,-1.6132 -2.0431,-2.9172 -3.2745,-3.8523 -1.2316,-0.935 -2.7082,-1.4125 -4.4944,-1.4125 z m -940.22486,0.1284 c -2.54852,1e-4 -4.54848,0.8908 -6.03532,2.6324 -1.48687,1.7418 -2.24719,4.0876 -2.24719,7.0626 v 84.17339 h 15.47352 v -67.86519 l 65.10433,65.55379 c 2.29434,2.2955 4.74948,3.4028 7.38363,3.4028 2.37989,0 4.29285,-0.8037 5.77849,-2.504 1.48546,-1.7002 2.24709,-4.0687 2.24719,-7.1268 v -84.94379 h -15.40931 v 67.86519 l -65.36116,-64.91169 c -1.1874,-1.1905 -2.36269,-2.0585 -3.46709,-2.5683 -1.10448,-0.5096 -2.27713,-0.7703 -3.46709,-0.7704 z m 427.80096,0 c -2.54852,1e-4 -4.54848,0.8908 -6.03531,2.6324 -1.48686,1.7418 -2.2472,4.0876 -2.2472,7.0626 v 84.17339 h 15.47352 v -67.86519 l 65.10433,65.55379 c 2.29435,2.2955 4.74948,3.4028 7.38363,3.4028 2.3799,0 4.29285,-0.8037 5.77849,-2.504 1.48544,-1.7002 2.24709,-4.0687 2.24719,-7.1268 v -84.94379 h -15.40931 v 67.86519 l -65.36115,-64.91169 c -1.18744,-1.1905 -2.36268,-2.0585 -3.4671,-2.5683 -1.10445,-0.5096 -2.27712,-0.7703 -3.46709,-0.7704 z m -643.01766,1.1557 v 92.71269 h 16.05137 v -76.53299 h 49.05297 c 5.69061,1e-4 10.16837,1.6063 13.35473,4.7513 3.18617,3.145 4.75112,7.3591 4.7512,12.71259 -8e-5,5.2707 -1.56503,9.5477 -4.7512,12.77689 -3.18636,3.22931 -7.66412,4.81551 -13.35473,4.81541 h -37.17496 v 15.7304 h 37.17496 c 5.35099,0 10.17678,-0.8466 14.38202,-2.504 4.20505,-1.6575 7.70568,-3.9591 10.5939,-6.9342 2.88803,-2.9751 5.14763,-6.5366 6.67737,-10.65811 1.5295,-4.1215 2.24708,-8.72359 2.24719,-13.73999 -1.1e-4,-5.09929 -0.71769,-9.66119 -2.24719,-13.73999 -1.52974,-4.0787 -3.78934,-7.5532 -6.67737,-10.4013 -2.88822,-2.8479 -6.38885,-5.0412 -10.5939,-6.6131 -4.20524,-1.5718 -9.03103,-2.3755 -14.38202,-2.3756 z m 110.49759,0 v 92.71269 h 82.88925 v -16.244 h -66.83788 v -60.28899 h 66.70947 v -16.1797 z m 635.89085,0 v 92.71269 h 53.67572 c 6.541,0 12.5837,-1.2371 18.106,-3.6598 5.522,-2.4226 10.261,-5.7447 14.2537,-9.9518 3.9923,-4.2071 7.1222,-9.1809 9.374,-14.9599 2.2514,-5.7789 3.3384,-12.0326 3.3386,-18.74801 -10e-5,-6.71519 -1.0871,-12.86059 -3.3386,-18.42688 -2.2518,-5.5662 -5.3817,-10.3233 -9.374,-14.3179 -3.9927,-3.9943 -8.7317,-7.0998 -14.2537,-9.3097 -5.5223,-2.2099 -11.565,-3.3386 -18.106,-3.3387 z m 111.97442,0 v 92.71269 h 16.1155 v -76.53299 h 50.4655 c 5.6077,1e-4 9.9329,1.498 13.0336,4.4302 3.1007,2.9324 4.6228,7.3833 4.6229,13.41899 -10e-5,6.0332 -1.4566,10.6806 -4.4302,13.8683 -2.9737,3.1878 -7.3646,4.7513 -13.2263,4.7512 h -38.6518 v 14.3179 h 34.671 l 23.435,25.7464 h 22.9214 l -27.8652,-28.1862 c 6.0303,-2.2929 10.7047,-6.0724 14.0611,-11.3002 3.3559,-5.2278 5.0079,-11.7195 5.008,-19.4543 -10e-5,-5.18489 -0.7177,-9.83239 -2.2472,-13.99669 -1.5297,-4.1643 -3.7251,-7.7258 -6.6132,-10.6582 -2.8883,-2.9321 -6.4317,-5.1696 -10.594,-6.7415 -4.1623,-1.5718 -8.857,-2.3755 -14.1251,-2.3756 z m 118.3948,0 v 92.71269 h 16.1798 v -92.71269 z m 26.9663,0 53.2905,88.73189 c 0.9333,1.616 2.0001,2.9173 3.2745,3.8523 1.2742,0.9351 2.8391,1.3484 4.6228,1.3484 1.7007,0 3.1559,-0.4133 4.4302,-1.3484 1.2741,-0.935 2.4053,-2.2363 3.3387,-3.8523 l 53.3547,-88.73189 h -18.5554 l -41.9261,71.39639 -42.0546,-71.39639 z m -241.28415,16.1797 h 37.62435 c 4.161,1e-4 7.9668,0.7598 11.4928,2.2472 3.5258,1.4876 6.59,3.5285 9.1814,6.1638 2.5913,2.6353 4.5912,5.805 6.0353,9.50239 1.444,3.6975 2.183,7.7364 2.183,12.07059 0,4.33431 -0.739,8.33171 -2.183,12.07061 -1.4441,3.739 -3.444,6.9528 -6.0353,9.6308 -2.5914,2.6782 -5.6556,4.8274 -9.1814,6.3564 -3.526,1.529 -7.3318,2.2472 -11.4928,2.2472 h -37.62435 z m -624.01284,22.60039 v 13.6115 h 51.36436 v -13.6115 z"
           id="path16" />
      </g>
    </g>
  </g>
</svg>
